<svg id="bold" enable-background="new 0 0 32 32" height="512" viewBox="0 0 32 32" width="512" xmlns="http://www.w3.org/2000/svg"><path d="m26 32h-20c-3.314 0-6-2.686-6-6v-20c0-3.314 2.686-6 6-6h20c3.314 0 6 2.686 6 6v20c0 3.314-2.686 6-6 6z" fill="#ffe6e2"/><g fill="#fd907e"><path d="m13.5 18.667c-.178 0-.347-.096-.437-.257l-.729-1.313v1.07c0 .276-.224.5-.5.5s-.5-.224-.5-.5v-3c0-.228.154-.427.375-.484.219-.056.451.042.563.241l.728 1.313v-1.07c0-.276.224-.5.5-.5s.5.224.5.5v3c0 .228-.154.427-.375.484-.041.01-.083.016-.125.016z"/><path d="m16.167 18.667h-.333c-.643 0-1.167-.523-1.167-1.167v-1.667c0-.643.523-1.167 1.167-1.167h.333c.643 0 1.167.523 1.167 1.167v1.667c-.001.643-.524 1.167-1.167 1.167zm-.334-3c-.092 0-.167.075-.167.167v1.666c0 .092.075.167.167.167h.333c.092 0 .167-.075.167-.167v-1.667c0-.092-.075-.167-.167-.167h-.333z"/><path d="m19.333 18.667c-.276 0-.5-.224-.5-.5v-3c0-.276 1-.276 1 0v3c0 .276-.224.5-.5.5z"/><path d="m20.167 15.667h-1.667c-.276 0-.5-.224-.5-.5s.224-.5.5-.5h1.667c.276 0 .5.224.5.5s-.224.5-.5.5z"/><path d="m22.833 24h-1c-.276 0-.5-.224-.5-.5v-3c0-.276.224-.5.5-.5h1c.644 0 1.167.523 1.167 1.167v1.667c0 .643-.523 1.166-1.167 1.166zm-.5-1h.5c.092 0 .167-.075.167-.167v-1.667c0-.091-.075-.166-.167-.166h-.5z"/><path d="m8.5 24c-.276 0-.5-.224-.5-.5v-2.333c0-.644.523-1.167 1.167-1.167h1c.276 0 .5.224.5.5s-.224.5-.5.5h-1c-.092 0-.167.075-.167.167v2.333c0 .276-.224.5-.5.5z"/><path d="m10.167 22.667h-1.667c-.276 0-.276-1 0-1h1.667c.276 0 .5.224.5.5s-.224.5-.5.5z"/><path d="m20.167 24c-.178 0-.347-.096-.437-.257l-.73-1.313v1.07c0 .276-.224.5-.5.5s-.5-.224-.5-.5v-3c0-.228.154-.427.375-.484.219-.057.451.042.563.241l.729 1.313v-1.07c0-.276.224-.5.5-.5s.5.224.5.5v3c0 .228-.154.427-.375.484-.042.011-.084.016-.125.016z"/><path d="m12.833 24h-.333c-.643 0-1.167-.523-1.167-1.167v-1.667c0-.643.523-1.167 1.167-1.167h.333c.644.001 1.167.524 1.167 1.168v1.667c0 .643-.523 1.166-1.167 1.166zm-.333-3c-.092 0-.167.075-.167.167v1.667c0 .092.075.167.167.167h.333c.092-.001.167-.076.167-.168v-1.667c0-.091-.075-.166-.167-.166z"/><path d="m16.167 24h-.333c-.643 0-1.167-.523-1.167-1.167v-2.333c0-.276.224-.5.5-.5s.5.224.5.5v2.333c0 .092.075.167.167.167h.333c.092 0 .167-.075.167-.167v-2.333c0-.276.224-.5.5-.5s.5.224.5.5v2.333c-.001.644-.524 1.167-1.167 1.167z"/></g><path d="m9.167 18.667h.167v-7.333h13.333v7.333h.167c.424 0 .817.116 1.167.302v-8.969c0-1.103-.897-2-2-2h-12.001c-1.103 0-2 .897-2 2v8.969c.35-.187.743-.302 1.167-.302z" fill="#fc573b"/></svg>